<?xml version="1.0" encoding="utf-8"?>
<!-- Generator: Adobe Illustrator 20.1.0, SVG Export Plug-In . SVG Version: 6.00 Build 0)  -->
<svg version="1.1" id="Layer_1" xmlns="http://www.w3.org/2000/svg" xmlns:xlink="http://www.w3.org/1999/xlink" x="0px" y="0px"
	 viewBox="0 0 501.1 125.3" style="enable-background:new 0 0 501.1 125.3;" xml:space="preserve">
<style type="text/css">
	.st0{fill:#001E40;}
</style>
<g>
	<path class="st0" d="M160,35.6H144V67h-4.9V31.2H160V35.6z"/>
	<path class="st0" d="M191.4,67h-4.9V41.3l-20.1,26.2h-1.3V31.2h4.9v25.6l20.1-26.2h1.3V67z"/>
	<path class="st0" d="M219.2,67V49.7h-15.6V67h-4.9V31.2h4.9v14.3h15.6V31.2h4.9V67H219.2z"/>
	<path class="st0" d="M236.3,35.6v9.9h11.8v4.2h-11.8v12.9h16.2V67h-21.1V31.2h21.3v4.4H236.3z"/>
	<path class="st0" d="M283.3,67.1c-0.2,0.1-0.8,0.1-1.8,0.1c-2,0-3.5-0.5-4.5-1.6c-0.9-1.1-1.6-2.9-2.1-5.4
		c-0.6-3.5-1.8-6.1-3.6-7.7s-4.4-2.4-7.6-2.4h-0.2V67h-4.9V31.2h4.9V46h0.5c3,0,5.5-0.7,7.3-2.1c1.8-1.4,3-3.5,3.5-6.1
		c0.4-2.4,1.1-4.1,2-5.2c0.9-1.1,2.4-1.6,4.3-1.6c0.6,0,1.2,0,1.7,0.1v4.2c-0.1,0-0.4,0-1,0c-0.6,0-1.1,0.2-1.4,0.6
		c-0.3,0.4-0.6,1.3-0.9,2.8c-0.5,2.3-1.4,4.3-2.9,5.9c-1.5,1.7-3.3,2.8-5.6,3.5c4.9,1.7,7.9,5.4,9,11c0.3,1.6,0.6,2.7,1,3.1
		c0.4,0.5,0.8,0.7,1.4,0.7c0.3,0,0.7,0,1-0.1V67.1z"/>
	<path class="st0" d="M287.5,48.8c0-5.2,1.3-9.5,3.9-13c2.6-3.5,6.1-5.2,10.5-5.2c5,0,8.8,1.6,11.4,4.9c2.6,3.2,3.9,7.7,3.9,13.4
		c0,5.8-1.3,10.4-4,13.8c-2.6,3.4-6.5,5-11.4,5c-4.6,0-8.1-1.8-10.6-5.3C288.7,58.8,287.5,54.3,287.5,48.8z M292.6,48.8
		c0,4.1,0.8,7.6,2.4,10.3c1.6,2.7,3.9,4.1,6.8,4.1c3.4,0,5.9-1.2,7.6-3.7c1.7-2.5,2.6-6,2.6-10.6c0-9.2-3.4-13.8-10.3-13.8
		c-3,0-5.2,1.2-6.8,3.6C293.4,41,292.6,44.4,292.6,48.8z"/>
	<path class="st0" d="M349.2,67h-4.9V35.5h-7.9c-0.5,4.7-1.2,9-1.9,13c-0.8,4-1.8,7.3-3,10s-2.4,4.6-3.5,5.8
		c-1.1,1.2-2.2,1.9-3.4,2.3c-1.2,0.4-2.7,0.6-4.6,0.6v-4.6c1.1,0,2.1-0.2,2.9-0.6c0.8-0.4,1.7-1.2,2.5-2.4c0.9-1.2,1.9-3.3,2.9-6.3
		c1-3,1.9-6.3,2.6-10c0.7-3.7,1.2-7.7,1.8-12.1h16.6V67z"/>
	<path class="st0" d="M354.8,48.8c0-5.2,1.3-9.5,3.9-13c2.6-3.5,6.1-5.2,10.5-5.2c5,0,8.8,1.6,11.4,4.9c2.6,3.2,3.9,7.7,3.9,13.4
		c0,5.8-1.3,10.4-4,13.8c-2.6,3.4-6.5,5-11.4,5c-4.6,0-8.1-1.8-10.6-5.3C356,58.8,354.8,54.3,354.8,48.8z M359.9,48.8
		c0,4.1,0.8,7.6,2.4,10.3c1.6,2.7,3.9,4.1,6.8,4.1c3.4,0,5.9-1.2,7.6-3.7c1.7-2.5,2.6-6,2.6-10.6c0-9.2-3.4-13.8-10.3-13.8
		c-3,0-5.2,1.2-6.8,3.6C360.7,41,359.9,44.4,359.9,48.8z"/>
	<path class="st0" d="M411,35.6h-15.9V67h-4.9V31.2H411V35.6z"/>
	<path class="st0" d="M452.9,67h-4.6V49.1l-16.3,18.6h-1V40.8h4.7v17.9l16.3-18.6h1.1V67z"/>
	<path class="st0" d="M497.5,67h-4.8V51.5l-2.1,0c-3,0-5.3,0.7-6.9,2.1c-1.6,1.4-2.7,3.8-3.3,7.2c-0.5,2.5-1.1,4.3-2,5.2
		s-2.3,1.3-4.2,1.3c-0.7,0-1.2,0-1.5-0.1v-4.3c0.3,0.1,0.6,0.1,0.8,0.1c0.5,0,1-0.2,1.3-0.6c0.3-0.4,0.6-1.3,0.9-2.7
		c0.9-4.9,3.4-8,7.3-9.4c-3.1-0.8-5.3-2-6.4-3.4c-1.1-1.5-1.7-3.2-1.7-5.3c0-3.2,1.1-5.7,3.4-7.6c2.3-1.9,5.7-2.9,10.3-2.9
		c2.4,0,5.4,0.2,8.9,0.5V67z M492.6,47.5V35.4c-1.7-0.2-3.5-0.3-5.2-0.3c-2.8,0-4.8,0.6-5.9,1.8c-1.1,1.2-1.7,2.5-1.7,4.1
		c0,4.3,3,6.5,9,6.5L492.6,47.5z"/>
</g>
<g>
	<path class="st0" d="M161.3,111.4l-2.2-12.4l-6.2,12.7h-1l-6.2-12.5l-2.1,12.2h-3.5l3.9-20.9h1l7.6,15.3l7.5-15.3h0.9l3.9,20.9
		H161.3z"/>
	<path class="st0" d="M185.8,101.6H171c0,1.5,0.3,2.8,0.8,3.8c0.5,1,1.2,1.9,2.2,2.5c1,0.6,2.1,0.9,3.5,0.9c2.1,0,3.8-0.6,5.2-1.9
		l1.5,2.9c-1,0.8-2,1.3-3.2,1.5s-2.6,0.4-4.3,0.4c-2.8,0-5.1-1-6.9-2.9c-1.8-1.9-2.7-4.4-2.7-7.5c0-3.3,0.9-5.9,2.8-7.9
		c1.9-2,4.1-3,6.8-3c2.8,0,5.1,0.8,6.8,2.4c1.7,1.6,2.5,3.7,2.5,6.4C186.1,99.9,186,100.6,185.8,101.6z M176.9,93.6
		c-1.6,0-2.9,0.5-4,1.6s-1.7,2.3-1.8,3.7h11.3c0-1.6-0.5-2.8-1.5-3.8C179.9,94.1,178.6,93.6,176.9,93.6z"/>
	<path class="st0" d="M209.1,118.2h-3.2v-6.7h-14.5v6.7h-3.2v-9.6h1.6c1.6-1.9,2.8-4.1,3.7-6.8c0.9-2.7,1.3-5.4,1.3-8.2v-2.7h12.1
		v17.6h2.3V118.2z M203.3,108.5V93.8h-5.6c0,2.7-0.4,5.4-1.2,8s-1.9,4.9-3.3,6.7H203.3z"/>
	<path class="st0" d="M229.9,111.4h-3.6v-14L213.5,112h-0.8V90.9h3.7v14l12.8-14.6h0.8V111.4z"/>
	<path class="st0" d="M253.2,118.1h-3.3v-6.6h-14.8V90.9h3.7v17.5h8.4V90.9h3.6v17.5h2.4V118.1z"/>
	<path class="st0" d="M273.9,111.4h-3.6v-14L257.5,112h-0.8V90.9h3.7v14l12.8-14.6h0.8V111.4z"/>
	<path class="st0" d="M295.9,111.4h-3.7v-9.3h-9.4v9.3h-3.7V90.9h3.7v8.2h9.4v-8.2h3.7V111.4z"/>
	<path class="st0" d="M316.5,92.6l-1.8,2.5c-0.4-0.4-1.1-0.8-2-1.1s-1.8-0.5-2.7-0.5c-2,0-3.6,0.7-4.7,2.1c-1.2,1.4-1.7,3.3-1.7,5.7
		c0,2.3,0.6,4.1,1.7,5.4c1.2,1.3,2.8,1.9,5,1.9c1.6,0,3.3-0.6,5-1.9l1.4,3.1c-1.9,1.3-4.3,1.9-7.3,1.9c-2.8,0-5.1-0.9-6.9-2.8
		s-2.7-4.4-2.7-7.6c0-3.4,1-6,2.9-8c1.9-1.9,4.5-2.9,7.7-2.9c1.1,0,2.3,0.2,3.5,0.7C315.1,91.7,316,92.1,316.5,92.6z"/>
	<path class="st0" d="M336.7,111.6c-0.4,0.1-0.8,0.1-1.3,0.1c-2.4,0-3.8-1.2-4.1-3.6c-0.3-2-1-3.5-2.1-4.5c-1.1-1-2.6-1.4-4.7-1.4
		h-0.3v9.3h-3.7V90.9h3.7v8.2h0.5c1.9,0,3.4-0.4,4.4-1.2s1.7-2,2-3.6c0.4-2.4,1.8-3.6,4-3.6c0.4,0,0.9,0,1.3,0.1V94
		c-0.2,0-0.5,0-1,0c-0.6,0-0.9,0.4-1.1,1.2c-0.6,2.9-2.3,4.7-5.1,5.5c2.9,1,4.8,3.3,5.4,6.7c0.2,0.7,0.5,1.1,1.1,1.1
		c0.5,0,0.8,0,1-0.1V111.6z"/>
	<path class="st0" d="M358.1,111.4h-3.6v-14L341.6,112h-0.8V90.9h3.7v14l12.8-14.6h0.8V111.4z"/>
	<path class="st0" d="M380.5,111.4h-3.6v-14L364.1,112h-0.8V90.9h3.7v14l12.8-14.6h0.8V111.4z M379.1,81c-0.9,3.9-3.1,5.9-6.9,5.9
		c-3.7,0-6-2-6.9-5.9l3.3-0.7c0.5,2.6,1.7,3.9,3.6,3.9c2.2,0,3.4-1.3,3.8-3.9L379.1,81z"/>
	<path class="st0" d="M415.6,118.1h-3.3v-6.6h-14.8V90.9h3.7v17.5h8.4V90.9h3.6v17.5h2.4V118.1z"/>
	<path class="st0" d="M436.3,101.6h-14.8c0,1.5,0.3,2.8,0.8,3.8c0.5,1,1.2,1.9,2.2,2.5c1,0.6,2.1,0.9,3.5,0.9c2.1,0,3.8-0.6,5.2-1.9
		l1.5,2.9c-1,0.8-2,1.3-3.2,1.5s-2.6,0.4-4.3,0.4c-2.8,0-5.1-1-6.9-2.9c-1.8-1.9-2.7-4.4-2.7-7.5c0-3.3,0.9-5.9,2.8-7.9
		c1.9-2,4.1-3,6.8-3c2.8,0,5.1,0.8,6.8,2.4c1.7,1.6,2.5,3.7,2.5,6.4C436.7,99.9,436.6,100.6,436.3,101.6z M427.5,93.6
		c-1.6,0-2.9,0.5-4,1.6s-1.7,2.3-1.8,3.7H433c0-1.6-0.5-2.8-1.5-3.8C430.5,94.1,429.2,93.6,427.5,93.6z"/>
	<path class="st0" d="M457.3,111.4h-3.7v-9.3h-9.4v9.3h-3.7V90.9h3.7v8.2h9.4v-8.2h3.7V111.4z"/>
	<path class="st0" d="M476.5,94h-5.9v17.5H467V94h-5.9v-3.1h15.4V94z"/>
	<path class="st0" d="M483.9,110.3v9.2h-3.7V90.9h3.7v1.7c1.4-1.4,3-2.1,5-2.1c2.9,0,5.2,0.9,6.8,2.7s2.4,4.5,2.4,8
		c0,3.1-0.8,5.7-2.5,7.6c-1.6,2-4,2.9-7.1,2.9c-0.8,0-1.8-0.2-2.7-0.5C484.8,111.1,484.2,110.7,483.9,110.3z M483.9,95.4v12
		c0.3,0.4,0.8,0.7,1.5,1c0.7,0.3,1.4,0.5,2.1,0.5c4.5,0,6.8-2.6,6.8-7.7c0-2.7-0.5-4.6-1.6-5.7c-1.1-1.2-2.8-1.8-5.1-1.8
		c-0.5,0-1.1,0.2-1.9,0.6C484.8,94.6,484.3,95,483.9,95.4z"/>
</g>
<path class="st0" d="M89.9,44.1c0.9,0.9,1.8,1.8,2.8,2.8c2.4,2.4,4.5,5,6.3,7.8c1.1,1.7,2,3.5,2.5,5.4c0.4,1.6,0.6,3.3,0,5
	c-0.6,1.8-1.9,2.9-3.6,3.6c-3,1.3-6.1,1.4-9.3,1c-1.5-0.2-2.9-0.3-4.4-0.6c-0.9-0.1-1.7-0.4-2.6-0.6c-1.7-0.4-3.4-0.9-5.3-1.4
	c-0.1,0.3-0.3,0.6-0.4,0.9c-0.6,2.8-1.4,5.5-2.4,8.1c-1.3,3.3-2.8,6.4-5.2,9c-1.1,1.1-2.3,1.9-3.8,2.5c-1.9,0.8-3.4,0.1-4.9-0.7
	c-1.4-0.8-2.5-2-3.5-3.3c-2.2-3.1-3.7-6.5-4.8-10.1c-0.6-1.9-1.1-3.9-1.6-5.9c-0.1-0.5-0.3-0.6-0.8-0.5c-2.2,0.6-4.5,1.4-6.7,1.8
	c-3.2,0.6-6.3,1.1-9.6,0.8c-1.8-0.2-3.6-0.5-5.2-1.3c-3-1.6-3.9-4.5-3.1-7.5c0.8-3.4,2.6-6.4,4.8-9.1c1-1.3,2.1-2.5,3.1-3.7
	c0.4-0.5,0.6-0.8,0.3-1.5c-0.8-1.7-0.8-3.5,0.1-5.2c0.3-0.6,0.2-1-0.3-1.5c-2.6-2.6-4.8-5.5-6.5-8.8c-1.1-2.2-2-4.5-1.7-7
	c0.2-1.6,0.9-2.9,2.2-3.9c1.4-1,2.9-1.5,4.6-1.8c2.4-0.4,4.7-0.3,7.1-0.1c2.5,0.3,4.9,0.7,7.4,1.3c1.2,0.3,2.3,0.7,3.5,1
	c0.7,0.2,0.8,0.2,0.9-0.5c0.1-0.3,0.1-0.5,0.2-0.8c0.1-0.4-0.1-0.6-0.4-0.8c-1.9-1.1-2.9-2.7-3.3-4.9c-0.2-1,0.1-2,0.5-2.9
	c1.2-2.9,4-4.2,6.6-3.7c0.9,0.2,1,0.1,1.4-0.7c1-1.7,2.1-3.3,3.6-4.6c0.8-0.7,1.7-1.2,2.7-1.6C63.1-0.3,64.8,0,66.4,1
	c1.6,1,2.9,2.4,3.9,4c1.6,2.3,2.8,4.9,3.7,7.6c0.8,2.3,1.4,4.7,2,7c0.1,0.4,0.3,0.9,0.4,1.4c0.5-0.1,0.9-0.3,1.3-0.4
	c2.4-0.7,4.7-1.3,7.2-1.7c2.5-0.4,4.9-0.8,7.4-0.7c2.2,0.1,4.5,0.4,6.4,1.6c2.3,1.3,3.3,3.3,3.1,6c-0.2,2.1-0.9,4-1.9,5.8
	c-0.3,0.5-0.3,0.9,0,1.5c1.2,2.1,0.8,5.5-1.3,7.3c-1.7,1.5-3.6,1.8-5.7,1.4c-0.6-0.1-1,0-1.4,0.4C91.1,42.8,90.5,43.4,89.9,44.1z
	 M77.3,44.2c-0.1-2.4-0.3-4.7-0.3-6.9c0-1-0.4-1.5-1.2-2c-2.7-1.6-5.3-3.2-8-4.8c-1.2-0.7-2.5-1.3-3.7-2c-0.6-0.3-1.1-0.4-1.7,0
	c-0.7,0.4-1.5,0.8-2.3,1.2c-3.4,1.8-6.6,3.8-9.8,5.8c-0.6,0.4-0.9,0.9-0.9,1.6c0,1.3-0.1,2.6-0.1,3.8c0,3.3,0.1,6.7,0.1,10
	c0,0.7,0.3,1.1,0.8,1.5c0.6,0.4,1.2,0.8,1.8,1.2c3.3,2.2,6.8,4.1,10.3,5.9c0.5,0.3,1,0.3,1.6,0.1c0.3-0.1,0.6-0.3,0.9-0.4
	c1.7-0.9,3.4-1.8,5-2.7c2.2-1.3,4.3-2.6,6.5-4c0.4-0.3,0.7-0.6,0.7-1.2C77,48.8,77.2,46.4,77.3,44.2z M88.3,45.3
	c-1,0.8-1.8,1.5-2.7,2.2c-2.1,1.6-4.2,3.2-6.3,4.7c-0.6,0.4-0.9,0.9-1,1.7c-0.1,1.4-0.2,2.9-0.4,4.3c-0.2,1.4-0.4,2.8-0.6,4.2
	c-0.1,0.7-0.3,1.4-0.4,2.1c-0.1,0.6,0,0.8,0.6,0.9c0.6,0.2,1.1,0.4,1.7,0.4c1.9,0.3,3.8,0.6,5.7,0.8c2.6,0.3,5.1,0.1,7.6-0.8
	c3.3-1.2,4.8-4.2,4.3-7.4c-0.2-1.4-0.7-2.7-1.4-4c-1.5-3.1-3.8-5.8-6.1-8.3C89,45.9,88.7,45.6,88.3,45.3z M51.7,66.4
	c0,0.2,0,0.4,0,0.5c0.8,3,1.8,6,3.3,8.7c1,1.8,2.1,3.5,3.8,4.7c2.8,2.2,5.5,2.2,8.4,0.1c1.4-1,2.4-2.4,3.3-3.9
	c1.8-2.8,2.9-6,3.8-9.2c0.3-1,0.1-1.3-0.9-1.6c-1-0.3-2-0.7-3-1.1C68.3,63.9,66.1,63,64,62c-0.6-0.3-1.1-0.4-1.7,0
	c-0.8,0.4-1.5,0.8-2.4,1.1c-1.3,0.5-2.5,1.1-3.8,1.6C54.7,65.3,53.2,65.8,51.7,66.4z M39.8,21.1c-2,0.1-4,0.3-5.9,1.1
	c-1.7,0.7-3,1.8-3.8,3.5c-0.9,1.9-0.6,3.9,0,5.8c0.8,2.6,2.3,4.8,3.9,6.9c0.6,0.8,0.6,0.8,1.5,0.3c1.1-0.5,2.3-0.9,3.5-0.6
	c0.8,0.2,1.7,0.4,2.4,0.8c0.6,0.3,1,0.3,1.5-0.1c1.4-1,2.7-2,4.1-3c0.7-0.5,0.9-1,1-1.8c0.2-2,0.4-4,0.7-6.1
	c0.2-1.4,0.4-2.8,0.6-4.2c0.1-0.9,0.1-1-0.9-1.2c-1.3-0.3-2.6-0.7-4-0.8C42.9,21.6,41.3,21.3,39.8,21.1z M34.5,49.1
	c-1.7,2.1-3.1,4.2-4.1,6.7c-0.5,1.3-0.9,2.7-0.8,4.2c0.1,2.2,1.1,4,3,5.2c1.4,0.9,2.9,1.4,4.5,1.5c2.8,0.3,5.6,0.1,8.3-0.4
	c1.1-0.2,2.1-0.5,3.2-0.7c0.7-0.2,0.9-0.4,0.8-1.2c-0.1-0.4-0.1-0.8-0.2-1.3c-0.4-3-0.8-6-1.1-9c-0.1-0.9-0.4-1.4-1.1-1.9
	c-1.3-0.9-2.6-1.8-3.8-2.8c-0.6-0.5-0.8-0.5-1.5-0.1c-1.8,1.1-3.7,1.3-5.7,0.5C35.4,49.5,35,49.3,34.5,49.1z M51.7,21.4
	c0.2,0.1,0.3,0.2,0.3,0.2c3.5,1.3,7,2.7,10.3,4.3c0.6,0.3,1.1,0.2,1.7,0c2.4-1,4.7-2.1,7.1-3.1c1.1-0.5,2.2-0.9,3.4-1.3
	c-0.1-0.4-0.1-0.8-0.2-1.1c-0.4-1.2-0.8-2.5-1.3-3.7c-1-2.6-2.2-5.1-3.9-7.2c-1-1.3-2.2-2.4-3.8-2.9c-0.8-0.3-1.7-0.5-2.6-0.5
	c-1.9,0.1-3.4,1-4.7,2.3c-0.7,0.7-0.7,0.7-0.2,1.5c0.7,1.1,1,2.3,0.9,3.7c-0.1,2.3-1.3,3.9-3.3,5c-0.8,0.5-1.7,0.7-2.6,0.7
	c-0.4,0-0.7,0.1-0.8,0.5C51.9,20.4,51.8,20.9,51.7,21.4z M86.2,21.1c-1.4,0.1-2.6,0.1-3.7,0.3c-1.6,0.3-3.2,0.7-4.8,1
	c-0.9,0.2-1,0.3-0.8,1.2c0.6,3,1,6,1.2,9.1c0,0.6,0.1,1.2,0.2,1.8c0.1,0.3,0.3,0.7,0.5,0.9c0.8,0.7,1.8,1.3,2.6,1.9
	c2.1,1.6,4.2,3.3,6.3,4.9c0.5,0.4,0.6,0.4,1.1,0c0.4-0.4,0.7-0.7,1.1-1.1c0.5-0.6,0.5-0.6,0-1.3c-0.8-1-1.3-2.1-1.4-3.4
	c-0.1-2.4,0.7-4.3,2.7-5.7c1.4-0.9,3-1.3,4.7-0.8c0.4,0.1,0.8,0.1,0.9-0.4c0.5-2.1-0.3-4.8-2-6.2c-1.1-0.9-2.3-1.4-3.7-1.8
	C89.4,21.2,87.7,21.2,86.2,21.1z M78.6,50.6c3.1-2,5.8-4.2,8.4-6.7c-2.7-2.4-5.4-4.7-8.4-6.6C78.6,41.8,78.6,46.1,78.6,50.6z
	 M76.7,33.7c-0.1-1.3-0.2-2.6-0.4-3.8c-0.3-2-0.7-3.9-1-5.9c-0.1-0.7-0.3-0.8-0.9-0.6c-2.6,1-5.1,2-7.7,3c-0.5,0.2-0.9,0.4-1.4,0.7
	c0.2,0.2,0.2,0.3,0.3,0.4c3.6,2.1,7.1,4.1,10.7,6.2C76.3,33.7,76.4,33.7,76.7,33.7z M76.6,54.1c-3.9,2.3-7.6,4.4-11.5,6.6
	c3.3,1.6,6.5,2.9,9.9,3.9C75.9,61.2,76.4,57.7,76.6,54.1z M49.8,54.2c-0.3,1.5,0.9,9.1,1.6,10.3c0.4-0.1,0.9-0.1,1.3-0.3
	c2.6-1,5.2-2.1,7.8-3.1c0.2-0.1,0.3-0.3,0.4-0.4C57.2,58.5,53.5,56.3,49.8,54.2z M49.7,33.8c0.5-0.3,0.9-0.5,1.3-0.7
	c1-0.6,2-1.3,3-1.9c2-1.2,4.1-2.3,6.2-3.5c0.3-0.1,0.5-0.3,0.8-0.5c-1.4-1-7.7-3.5-9.7-3.8C50.7,24.6,49.5,31.9,49.7,33.8z
	 M47.6,37.3c-1.6,1.1-2.9,2.1-4.3,3.2c1.3,2.3,1.4,4.6,0.1,7c1.3,1.1,2.6,2.1,4.2,3.1C47.6,46.1,47.6,41.9,47.6,37.3z"/>
<path class="st0" d="M98.7,85.8c0.9-0.4,1.2-1.2,1.6-1.9c0.8-1.5,1.6-3.1,2.2-4.7c0.4-1,0.7-2.1,1.1-3.1c0.7-1.7,1.4-3.5,2.5-5
	c0.6-0.9,1.4-1.4,2.3-1.9c1.2-0.5,4,0.1,3.8,0.5c-0.1,0.4-0.3,0.8-0.5,1.1c-0.7,0.9-1.2,1.9-1.6,2.9c-0.5,1.1-0.9,2.3-1.4,3.4
	c0,0.1-0.1,0.3-0.1,0.4c-0.3,1.5-1,2.9-1.5,4.3c-0.5,1.2-1.1,2.4-1.7,3.5c-0.2,0.3-0.4,0.6-0.6,0.9c-0.1,0.2-0.2,0.4-0.1,0.6
	c0.4-0.4,0.8-0.7,1.2-1.1c1.1-1.4,2.1-2.9,2.8-4.5c0.5-1.1,0.8-2.2,1.2-3.3c0.7-1.7,1.4-3.4,2.1-5.2c0.2-0.5,0.4-0.9,0.5-1.4
	c0.4-1.2,1.2-2.1,2.2-2.8c1.4-1,3-1.2,4.6-0.5c0.6,0.2,0.6,0.5,0.4,1.1c-0.4,0.8-0.8,1.5-1.2,2.3c-0.2,0.4-0.3,0.9-0.5,1.4
	c0,0.1,0,0.2-0.1,0.3c-1.1,2-1.6,4.2-2.3,6.2c-0.4,1.1-0.9,2.2-1.4,3.4c-0.1,0.3-0.2,0.6-0.2,1c0.2-0.1,0.4-0.3,0.5-0.4
	c0.5-0.8,1-1.6,1.5-2.5c0.4-0.6,0.7-1.2,1-1.9c0.4-0.8,0.8-1.7,1.2-2.6c0.8-1.6,1.5-3.1,2.4-4.6c1.1-1.9,2.8-2.8,5-2.6
	c0.7,0.1,1.1,0.6,0.7,1.2c-1,1.7-1.8,3.6-2.5,5.4c-0.4,1.1-0.7,2.2-1.2,3.3c-0.6,1.6-1.3,3.2-2.1,4.8c-0.6,1.3-1.4,2.5-2.2,3.7
	c-1.6,2.6-3.6,4.9-6,6.9c-1.6,1.3-3.4,2.5-5.1,3.6c-1.4,1-2.9,1.7-4.4,2.5c-1.6,0.9-3.3,1.7-4.9,2.6c-2.1,1.1-4.1,2.1-6.2,3.2
	c-2,1.1-3.8,2.5-5.5,4.1c-1.6,1.5-2.8,3.3-3.7,5.3c-0.6,1.3-1.1,2.6-1.1,4.1c0,1.4,0,2.9,0,4.3c0,0,0,0.1,0,0.1
	c-0.1,0.3-0.1,0.8-0.3,1c-0.4,0.3-0.7-0.1-1-0.3c-0.5-0.4-1-0.8-1.5-1.2c-2.2-1.9-4.4-3.9-6.3-6.1c-1.8-2-3.3-4.2-4.4-6.7
	c-0.5-1.1-0.9-2.2-1.1-3.5c-0.2-1.1-0.4-2.2-0.5-3.3c0-2,0.4-3.9,1.1-5.8c0.5-1.3,1.1-2.7,1.7-4c0.3-0.7,0.8-1.4,1.2-2
	c1.7-2.7,3.4-5.3,5.5-7.7c1.5-1.7,2.9-3.4,4.3-5.2c0.7-0.9,1.3-1.8,1.9-2.8c0.5-0.7,0.8-1.6,0.9-2.5c0.1-1,0.5-1.1,1.3-0.6
	c3.1,2.1,3.6,6,1.7,8.8c-1.1,1.5-2.1,3.1-3.1,4.7c-0.9,1.5-1.1,3.1-0.7,4.7c0.1,0.3,0.3,0.7,0.5,1c0.7,1.2,1.9,2,3.2,2.5
	c1,0.4,2.2,0.5,3.3,0.5c1.5,0,4.8-0.4,5-0.6c-0.4,0-2.9,0-3.7-0.2c-2-0.1-2.3-0.2-3.3-0.9c-0.4-0.1-0.5-0.4-0.3-0.8
	c0.1-0.3,0.3-0.5,0.5-0.7c1.5-1.1,2.7-2.5,3.8-3.9c1.3-1.7,2.2-3.6,3.1-5.4c0.8-1.6,1.3-3.3,1.9-4.9c0.5-1.2,0.9-2.5,1.6-3.6
	c0.4-0.8,1.1-1.4,1.8-2.1c0.5-0.5,1.6-0.9,2.3-0.9c0.8,0,1.1,0.2,1.8,0.2c0.6,0,0.7,0.4,0.4,0.9c-1,1.2-1.7,2.5-2.2,4
	c-0.7,1.8-1.4,3.6-2.1,5.4C99.6,83.6,99.2,84.7,98.7,85.8C98.5,86,98.7,86,98.7,85.8z"/>
<path class="st0" d="M12.7,83.8c0-0.1,0-0.3-0.1-0.4c-1.1-1.9-1.7-4-2.4-6C9.3,74.7,8.4,72,7,69.5c-0.1-0.3-0.3-0.5-0.5-0.7
	C6.6,68.2,7,68.1,7.4,68c3-0.7,5,0.4,6.4,3.1c0.5,1,0.9,2,1.4,3c0.3,0.7,0.5,1.4,0.7,2.1c0.4,1.2,0.7,2.4,1.2,3.5
	c1,2.3,2,4.5,3.8,6.4c0.1,0.1,0.3,0.2,0.6,0.4c0-0.2,0-0.3,0-0.4c-0.6-1.2-1.3-2.4-1.8-3.6c-0.5-1.2-1.1-2.4-1.4-3.8
	c-0.2-1.1-0.7-2.1-1-3.1c-0.4-1.1-0.8-2.1-1.3-3.2c-0.3-0.6-0.6-1.1-1-1.6c-0.2-0.4-0.5-0.7-0.7-1.1c-0.2-0.3-0.1-0.8,0.3-0.8
	c1.1-0.1,2.3-0.3,3.3,0c1.2,0.3,2.1,1.2,2.8,2.3c0.7,1.1,1.2,2.4,1.8,3.6c0.9,2.1,1.6,4.2,2.5,6.3c0.7,1.5,1.5,2.9,2.3,4.3
	c0.1,0.1,0.1,0.2,0.2,0.3c0.1,0,0.1-0.1,0.2-0.1c0-0.1,0-0.3,0-0.4c-0.4-0.9-0.8-1.8-1.1-2.7c-0.4-1-0.7-2-1.1-3c-0.3-1-0.6-2-1-2.9
	c-0.6-1.1-1.3-2.2-1.9-3.3c-0.2-0.4-0.4-0.7-0.6-1.2c0.3-0.1,0.5-0.3,0.7-0.3c1,0,1.9-0.1,2.8,0.1c1.1,0.3,1.9,1,2.5,1.9
	c0.8,1.2,1.4,2.5,1.8,3.8c0.2,0.6,0.4,1.2,0.7,1.7c1,2.6,2,5.2,3.6,7.5c1,1.6,2.2,2.9,3.4,4.3c0.4,0.5,0.9,0.9,1.4,1.2
	c0.6,0.4,0.7,0.8,0.6,1.4c-2.3,1.1-4.8,1.2-7.3,1.1c0,0.1,0,0.1,0,0.2c0.2,0.1,0.4,0.2,0.6,0.2c1.8,0.1,3.7,0.3,5.5,0.2
	c2.5-0.1,4.4-1.2,5.7-3.4c0.5-0.9,0.6-2,0.3-3c-0.4-1.4-1.1-2.7-1.9-3.9c-1.1-1.6-2.3-3.1-2.9-4.9c-0.4-1.1-0.5-2.2,0-3.4
	c0.3-0.8,0.6-1.7,1.3-2.3c0.6-0.6,1.2-1.2,1.7-1.8c0.6,0.1,0.6,0.6,0.7,0.9c0.3,1.1,0.7,2.1,1.4,3c1.6,2.4,3.6,4.6,5.5,6.9
	c1.5,1.9,3,3.8,4.3,5.8c1.3,2,2.6,4.1,3.7,6.3c1.5,3.1,2.1,6.4,1.7,9.9c-0.3,3-1.5,5.5-3.1,8c-1.4,2.1-3.1,4-4.8,5.8
	c-0.6,0.7-1.3,1.3-2,1.9c-1.3,1.1-2.5,2.1-3.8,3.2c-0.2,0.2-0.5,0.4-0.8,0.1c-0.2-0.2-0.3-0.5-0.3-0.8c0.3-1.4,0.3-2.7,0.1-4.1
	c-0.1-0.7-0.3-1.5-0.5-2.2c-0.5-2.8-2-5-3.9-7c-0.9-0.9-1.9-1.7-2.9-2.5c-1.9-1.6-4.1-2.7-6.2-3.9c-1.1-0.6-2.2-1.1-3.3-1.6
	c-1.3-0.7-2.6-1.4-4-2.1c-1.7-0.9-3.5-1.8-5.2-2.8c-0.7-0.4-1.3-0.8-2-1.3c-1.2-0.9-2.5-1.7-3.6-2.7c-1.2-1-2.3-2.2-3.3-3.4
	c-1.9-2.3-3.5-4.8-4.7-7.5c-0.6-1.3-1.1-2.7-1.7-4.1c-0.5-1.1-1-2.1-1.3-3.2c-0.4-1.4-1-2.6-1.6-3.9c-0.2-0.5-0.6-1-0.8-1.5
	c-0.5-1-0.1-1.5,0.9-1.6c2-0.1,3.5,0.8,4.6,2.5c1.1,1.6,1.8,3.5,2.6,5.2c0.9,2,1.8,4.1,3.1,5.9c0.3,0.4,0.7,0.8,1.1,1.2
	C12.6,83.8,12.6,83.8,12.7,83.8z"/>
</svg>
