<?xml version="1.0" encoding="UTF-8" standalone="no"?>
<svg width="40px" height="36px" viewBox="0 0 40 36" version="1.1" xmlns="http://www.w3.org/2000/svg" xmlns:xlink="http://www.w3.org/1999/xlink" xmlns:sketch="http://www.bohemiancoding.com/sketch/ns">
    <!-- Generator: Sketch 3.3 (11970) - http://www.bohemiancoding.com/sketch -->
    <title>aab_logo</title>
    <desc>Created with Sketch.</desc>
    <defs></defs>
    <g id="Page-1" stroke="none" stroke-width="1" fill="none" fill-rule="evenodd" sketch:type="MSPage">
        <g id="index" sketch:type="MSArtboardGroup" transform="translate(-1073.000000, -3877.000000)" fill="#94948F">
            <g id="aab_logo" sketch:type="MSLayerGroup" transform="translate(1073.000000, 3877.000000)">
                <g id="Group" sketch:type="MSShapeGroup">
                    <g transform="translate(8.000000, 1.043478)" id="Shape">
                        <path d="M1.12527473,0.00434782609 L1.84615385,0.00434782609 L2.92307692,3.0173913 L2.23296703,3.0173913 L2.03076923,2.4 L0.90989011,2.4 L0.703296703,3.0173913 L0.0395604396,3.0173913 L1.12527473,0.00434782609 L1.12527473,0.00434782609 Z M1.08571429,1.87826087 L1.86373626,1.87826087 L1.47692308,0.691304348 L1.08571429,1.87826087 L1.08571429,1.87826087 Z"></path>
                        <path d="M3.89450549,3.0173913 L3.26153846,3.0173913 L3.26153846,0.00434782609 L3.89450549,0.00434782609 L3.89450549,3.0173913 L3.89450549,3.0173913 Z"></path>
                        <path d="M6.50989011,0.00434782609 L7.42417582,0.00434782609 L7.42417582,3.0173913 L6.83076923,3.0173913 L6.83076923,0.97826087 L6.83076923,0.730434783 L6.83076923,0.486956522 L6.25494505,3.0173913 L5.63516484,3.0173913 L5.06373626,0.486956522 L5.06373626,0.730434783 C5.06373626,0.834782609 5.06813187,0.917391304 5.06813187,0.97826087 L5.06813187,3.0173913 L4.47472527,3.0173913 L4.47472527,0.00434782609 L5.40659341,0.00434782609 L5.96043956,2.37391304 L6.50989011,0.00434782609 L6.50989011,0.00434782609 Z"></path>
                        <path d="M1.12527473,5.02608696 L1.84615385,5.02608696 L2.92307692,8.03913043 L2.23296703,8.03913043 L2.03076923,7.42173913 L0.90989011,7.42173913 L0.703296703,8.03913043 L0.0395604396,8.03913043 L1.12527473,5.02608696 L1.12527473,5.02608696 Z M1.08571429,6.90434783 L1.86373626,6.90434783 L1.47692308,5.7173913 L1.08571429,6.90434783 L1.08571429,6.90434783 Z"></path>
                        <path d="M5.21318681,5.02608696 L5.21318681,5.56086957 L4.3032967,5.56086957 L4.3032967,8.03913043 L3.66153846,8.03913043 L3.66153846,5.56086957 L2.74725275,5.56086957 L2.74725275,5.02608696 L5.21318681,5.02608696 L5.21318681,5.02608696 Z"></path>
                        <path d="M2.52747253,10.373913 C2.61978022,10.5 2.66813187,10.6565217 2.66813187,10.8347826 C2.66813187,11.0173913 2.61978022,11.1652174 2.52747253,11.2782609 C2.47472527,11.3434783 2.4,11.4 2.29450549,11.4521739 C2.44835165,11.5086957 2.56703297,11.5956522 2.64615385,11.7173913 C2.72527473,11.8391304 2.76483516,11.9869565 2.76483516,12.1608696 C2.76483516,12.3391304 2.72087912,12.5 2.62857143,12.6391304 C2.57142857,12.7347826 2.5010989,12.8130435 2.41318681,12.8782609 C2.31648352,12.9521739 2.2021978,13.0043478 2.07032967,13.0304348 C1.93846154,13.0565217 1.79340659,13.0695652 1.63956044,13.0695652 L0.268131868,13.0695652 L0.268131868,10.0565217 L1.74065934,10.0565217 C2.10989011,10.0565217 2.37362637,10.1652174 2.52747253,10.373913 L2.52747253,10.373913 Z M0.874725275,10.573913 L0.874725275,11.2391304 L1.61318681,11.2391304 C1.74505495,11.2391304 1.85494505,11.2130435 1.93406593,11.1652174 C2.01758242,11.1173913 2.05714286,11.026087 2.05714286,10.9 C2.05714286,10.7608696 2.0043956,10.6652174 1.89450549,10.6217391 C1.8021978,10.5913043 1.67912088,10.573913 1.53406593,10.573913 L0.874725275,10.573913 L0.874725275,10.573913 Z M0.874725275,11.7391304 L0.874725275,12.5434783 L1.61318681,12.5434783 C1.74505495,12.5434783 1.84615385,12.526087 1.92087912,12.4913043 C2.05274725,12.426087 2.11868132,12.3 2.11868132,12.1130435 C2.11868132,11.9565217 2.05274725,11.8478261 1.92527473,11.7913043 C1.85494505,11.7565217 1.74945055,11.7434783 1.62197802,11.7391304 L0.874725275,11.7391304 L0.874725275,11.7391304 Z"></path>
                        <path d="M5.26593407,10.1304348 C5.37582418,10.1782609 5.47252747,10.2478261 5.55164835,10.3391304 C5.61758242,10.4130435 5.66593407,10.5 5.70549451,10.5913043 C5.74065934,10.6826087 5.76263736,10.7913043 5.76263736,10.9086957 C5.76263736,11.0521739 5.72747253,11.1913043 5.65274725,11.3304348 C5.57802198,11.4695652 5.45934066,11.5652174 5.29230769,11.6217391 C5.43296703,11.6782609 5.53406593,11.7565217 5.59120879,11.8608696 C5.64835165,11.9652174 5.67912088,12.1217391 5.67912088,12.3304348 L5.67912088,12.5347826 C5.67912088,12.673913 5.68351648,12.7652174 5.6967033,12.8130435 C5.71428571,12.8913043 5.75384615,12.9478261 5.81538462,12.9826087 L5.81538462,13.0565217 L5.11208791,13.0565217 C5.09450549,12.9913043 5.07692308,12.9347826 5.07252747,12.8956522 C5.05494505,12.8086957 5.04615385,12.726087 5.04615385,12.6347826 L5.04175824,12.3565217 C5.03736264,12.1652174 5.00659341,12.0347826 4.94065934,11.973913 C4.87472527,11.9086957 4.75604396,11.8782609 4.57582418,11.8782609 L3.95604396,11.8782609 L3.95604396,13.0608696 L3.33186813,13.0608696 L3.33186813,10.0478261 L4.78681319,10.0478261 C4.99340659,10.0565217 5.15164835,10.0826087 5.26593407,10.1304348 L5.26593407,10.1304348 Z M3.94725275,10.573913 L3.94725275,11.3826087 L4.63296703,11.3826087 C4.76923077,11.3826087 4.87032967,11.3652174 4.94065934,11.3347826 C5.05934066,11.2782609 5.12087912,11.1652174 5.12087912,10.9956522 C5.12087912,10.8130435 5.06373626,10.6913043 4.94505495,10.626087 C4.87912088,10.5913043 4.78241758,10.573913 4.65054945,10.573913 L3.94725275,10.573913 L3.94725275,10.573913 Z"></path>
                        <path d="M7.23956044,10.0521739 L7.96043956,10.0521739 L9.03736264,13.0652174 L8.34725275,13.0652174 L8.14505495,12.4478261 L7.02417582,12.4478261 L6.81758242,13.0652174 L6.15384615,13.0652174 L7.23956044,10.0521739 L7.23956044,10.0521739 Z M7.2,11.926087 L7.97802198,11.926087 L7.59120879,10.7391304 L7.2,11.926087 L7.2,11.926087 Z"></path>
                        <path d="M10.0087912,13.0652174 L9.37582418,13.0652174 L9.37582418,10.0521739 L10.0087912,10.0521739 L10.0087912,13.0652174 L10.0087912,13.0652174 Z"></path>
                        <path d="M10.5934066,10.0521739 L11.2615385,10.0521739 L12.4703297,12.1521739 L12.4703297,10.0521739 L13.0637363,10.0521739 L13.0637363,13.0652174 L12.4263736,13.0652174 L11.1868132,10.926087 L11.1868132,13.0652174 L10.5934066,13.0652174 L10.5934066,10.0521739 L10.5934066,10.0521739 Z"></path>
                    </g>
                    <g>
                        <path d="M5.52095565,29.7787623 L5.64601524,28.1734182 L6.72973006,32.007129 L6.60467047,33.6124731 L5.52095565,29.7787623 L5.52095565,29.7787623 Z" id="Rectangle-path"></path>
                        <path d="M12.4923635,23.8607912 L13.5143628,23.8131713 L13.7011622,29.2047156 L12.6791628,29.2523355 L12.4923635,23.8607912 L12.4923635,23.8607912 Z" id="Rectangle-path"></path>
                        <path d="M3.04519193,23.0289094 L7.87293896,22.1417343 L8.54394565,22.4501793 L3.71619862,23.3373544 L3.04519193,23.0289094 L3.04519193,23.0289094 Z" id="Rectangle-path"></path>
                        <path d="M23.8872003,22.560795 L24.1774518,21.7719571 L25.0960296,25.7745746 L24.8057781,26.5634125 L23.8872003,22.560795 L23.8872003,22.560795 Z" id="Rectangle-path"></path>
                        <path d="M39.9604396,4.86521739 L33.1824176,4.86521739 L28.2681319,0 L27.4153846,0.843478261 L32.2813187,5.65652174 L31.1164835,11.2347826 L25.2307692,12.8086957 L23.4021978,18.6695652 L15.7230769,21.4782609 L7.96043956,17.4478261 L0.0263736264,22.4086957 L0.404395604,31.6826087 L8.71648352,36 L16.0659341,31.4043478 L24.7120879,33.8086957 L30.0527473,25.8913043 L24.5582418,19.0086957 L26.1846154,13.7956522 L32.1450549,12.2043478 L33.4285714,6.06521739 L39.9648352,6.06521739 L39.9648352,4.86521739 L39.9604396,4.86521739 Z M1.58241758,30.9478261 L1.26153846,23.0478261 L8.01758242,18.8217391 L15.0945055,22.4956522 L15.1824176,24.626087 L15.4153846,30.3956522 L8.65934066,34.6217391 L1.58241758,30.9478261 L1.58241758,30.9478261 Z M28.5582418,25.9478261 L24.1934066,32.4217391 L16.6197802,30.3173913 L16.3208791,22.9695652 L16.3032967,22.5391304 L23.6835165,19.8391304 L28.5582418,25.9478261 L28.5582418,25.9478261 Z" id="Shape"></path>
                    </g>
                </g>
            </g>
        </g>
    </g>
</svg>