<?xml version="1.0" encoding="utf-8"?>
<!-- Generator: Adobe Illustrator 21.0.0, SVG Export Plug-In . SVG Version: 6.00 Build 0)  -->
<svg version="1.1" id="Layer_1" xmlns:sketch="http://www.bohemiancoding.com/sketch/ns"
	 xmlns="http://www.w3.org/2000/svg" xmlns:xlink="http://www.w3.org/1999/xlink" x="0px" y="0px" viewBox="0 0 12 12"
	 style="enable-background:new 0 0 12 12;" xml:space="preserve">
<style type="text/css">
	.st0{fill:#FF2E63;}
</style>
<title>Shape</title>
<desc>Created with Sketch.</desc>
<g id="Page-1" sketch:type="MSPage">
	<g id="index" transform="translate(-406.000000, -2087.000000)" sketch:type="MSArtboardGroup">
		<g id="pop-up" transform="translate(167.000000, 2063.000000)" sketch:type="MSLayerGroup">
			<path id="Shape" sketch:type="MSShapeGroup" class="st0" d="M249.8,24.9c0.3,0.3,0.3,0.9,0,1.2l-3.9,3.9l3.9,3.9
				c0.3,0.3,0.3,0.9,0,1.2s-0.9,0.3-1.2,0l-3.9-3.9l-3.9,3.9c-0.3,0.3-0.9,0.3-1.2,0s-0.3-0.9,0-1.2l3.9-3.9l-3.9-3.9
				c-0.3-0.3-0.3-0.9,0-1.2c0.3-0.3,0.9-0.3,1.2,0l3.9,3.9l3.9-3.9C248.9,24.6,249.5,24.6,249.8,24.9L249.8,24.9z"/>
		</g>
	</g>
</g>
</svg>
