<?xml version="1.0" encoding="UTF-8" standalone="no"?>
<svg width="12px" height="12px" viewBox="0 0 12 12" version="1.1" xmlns="http://www.w3.org/2000/svg" xmlns:xlink="http://www.w3.org/1999/xlink" xmlns:sketch="http://www.bohemiancoding.com/sketch/ns">
    <!-- Generator: Sketch 3.3 (11970) - http://www.bohemiancoding.com/sketch -->
    <title>Shape</title>
    <desc>Created with Sketch.</desc>
    <defs></defs>
    <g id="Page-1" stroke="none" stroke-width="1" fill="none" fill-rule="evenodd" sketch:type="MSPage">
        <g id="index" sketch:type="MSArtboardGroup" transform="translate(-406.000000, -2087.000000)" fill="#FFFFFF">
            <g id="pop-up" sketch:type="MSLayerGroup" transform="translate(167.000000, 2063.000000)">
                <path d="M251.928351,29.9855909 C251.928351,30.4592317 251.544437,30.8436359 251.070306,30.8436359 L245.592546,30.8436359 L245.592546,36.3218857 C245.592546,36.7960169 245.208142,37.1799307 244.734501,37.1799307 C244.26086,37.1799307 243.876456,36.7960169 243.876456,36.3218857 L243.876456,30.8436359 L238.397716,30.8436359 C237.924075,30.8436359 237.539671,30.4592317 237.539671,29.9855909 C237.539671,29.51195 237.924075,29.1275458 238.397716,29.1275458 L243.876456,29.1275458 L243.876456,23.6492961 C243.876456,23.1756552 244.26086,22.791251 244.734501,22.791251 C245.208142,22.791251 245.592546,23.1756552 245.592546,23.6492961 L245.592546,29.1275458 L251.070306,29.1275458 C251.544437,29.1275458 251.928351,29.51195 251.928351,29.9855909 L251.928351,29.9855909 Z" id="Shape" sketch:type="MSShapeGroup" transform="translate(244.734011, 29.985591) rotate(-45.000000) translate(-244.734011, -29.985591) "></path>
            </g>
        </g>
    </g>
</svg>