<?xml version="1.0" encoding="UTF-8" standalone="no"?>
<svg width="19px" height="18px" viewBox="0 0 19 18" version="1.1" xmlns="http://www.w3.org/2000/svg" xmlns:xlink="http://www.w3.org/1999/xlink" xmlns:sketch="http://www.bohemiancoding.com/sketch/ns">
    <!-- Generator: Sketch 3.3 (11970) - http://www.bohemiancoding.com/sketch -->
    <title>instagram copy</title>
    <desc>Created with Sketch.</desc>
    <defs>
        <path d="M14.0533949,3.91730114 C14.0533949,4.47225852 13.6039062,4.92174716 13.0493324,4.92174716 C12.494375,4.92174716 12.0445028,4.47225852 12.0445028,3.91730114 C12.0445028,3.36272727 12.494375,2.91285511 13.0493324,2.91285511 C13.6039062,2.91285511 14.0533949,3.36272727 14.0533949,3.91730114 L14.0533949,3.91730114 Z M8.579375,11.2686648 C7.02495739,11.2686648 5.7647017,10.0087926 5.7647017,8.454375 C5.7647017,6.89995739 7.02495739,5.6397017 8.579375,5.6397017 C10.1337926,5.6397017 11.3936648,6.89995739 11.3936648,8.454375 C11.3936648,10.0087926 10.1337926,11.2686648 8.579375,11.2686648 L8.579375,11.2686648 Z M8.5625,0 C6.2709517,0 5.98369318,0.00958806818 5.08356534,0.050625 C4.18573864,0.0916619318 3.5724858,0.234332386 3.03555398,0.44296875 C2.48059659,0.658508523 2.01039773,0.946917614 1.54134943,1.41634943 C1.07191761,1.88539773 0.783508523,2.35559659 0.56796875,2.91055398 C0.359332386,3.4474858 0.216661932,4.06073864 0.175625,4.95894886 C0.134588068,5.85869318 0.125,6.1459517 0.125,8.4375 C0.125,10.7290483 0.134588068,11.0163068 0.175625,11.9164347 C0.216661932,12.8142614 0.359332386,13.4275142 0.56796875,13.964446 C0.783508523,14.5194034 1.07191761,14.9899858 1.54134943,15.4590341 C2.01039773,15.9280824 2.48059659,16.2164915 3.03555398,16.4320313 C3.5724858,16.6406676 4.18573864,16.7833381 5.08356534,16.824375 C5.98369318,16.8654119 6.2709517,16.875 8.5625,16.875 C10.8540483,16.875 11.1413068,16.8654119 12.0410511,16.824375 C12.9392614,16.7833381 13.5525142,16.6406676 14.089446,16.4320313 C14.6444034,16.2164915 15.1146023,15.9280824 15.5836506,15.4590341 C16.0530824,14.9899858 16.3414915,14.5194034 16.5570313,13.964446 C16.7656676,13.4275142 16.9083381,12.8142614 16.949375,11.9164347 C16.9904119,11.0163068 17,10.7290483 17,8.4375 C17,6.1459517 16.9904119,5.85869318 16.949375,4.95894886 C16.9083381,4.06073864 16.7656676,3.4474858 16.5570313,2.91055398 C16.3414915,2.35559659 16.0530824,1.88539773 15.5836506,1.41634943 C15.1146023,0.946917614 14.6444034,0.658508523 14.089446,0.44296875 C13.5525142,0.234332386 12.9392614,0.0916619318 12.0410511,0.050625 C11.1413068,0.00958806818 10.8540483,0 8.5625,0 L8.5625,0 Z" id="path-1"></path>
    </defs>
    <g id="Page-1" stroke="none" stroke-width="1" fill="none" fill-rule="evenodd" sketch:type="MSPage">
        <g id="index" sketch:type="MSArtboardGroup" transform="translate(-1102.000000, -1484.000000)">
            <g id="Group" sketch:type="MSLayerGroup" transform="translate(650.000000, 876.000000)">
                <g id="instagram-copy" transform="translate(452.000000, 608.000000)">
                    <g id="Group-6" transform="translate(0.562500, 0.562500)">
                        <mask id="mask-2" sketch:name="Clip 5" fill="white">
                            <use xlink:href="#path-1"></use>
                        </mask>
                        <use id="Clip-5" stroke="#C3C1C1" sketch:type="MSShapeGroup" xlink:href="#path-1"></use>
                    </g>
                </g>
            </g>
        </g>
    </g>
</svg>