<?xml version="1.0" encoding="UTF-8" standalone="no"?>
<svg width="30px" height="30px" viewBox="0 0 30 30" version="1.1" xmlns="http://www.w3.org/2000/svg" xmlns:xlink="http://www.w3.org/1999/xlink" xmlns:sketch="http://www.bohemiancoding.com/sketch/ns">
    <!-- Generator: Sketch 3.3 (11970) - http://www.bohemiancoding.com/sketch -->
    <title>plus</title>
    <desc>Created with Sketch.</desc>
    <defs></defs>
    <g id="Page-1" stroke="none" stroke-width="1" fill="none" fill-rule="evenodd" sketch:type="MSPage">
        <g id="index" sketch:type="MSArtboardGroup" transform="translate(-689.000000, -2121.000000)" fill="#FFFFFF">
            <g id="plus" sketch:type="MSLayerGroup" transform="translate(689.000000, 2121.000000)">
                <path d="M21.9889484,14.8009322 C21.9889484,15.274573 21.6050345,15.6589772 21.1309033,15.6589772 L15.6531439,15.6589772 L15.6531439,21.137227 C15.6531439,21.6113582 15.2687397,21.995272 14.7950988,21.995272 C14.321458,21.995272 13.9370538,21.6113582 13.9370538,21.137227 L13.9370538,15.6589772 L8.45831372,15.6589772 C7.98467286,15.6589772 7.60026869,15.274573 7.60026869,14.8009322 C7.60026869,14.3272913 7.98467286,13.9428871 8.45831372,13.9428871 L13.9370538,13.9428871 L13.9370538,8.46463737 C13.9370538,7.99099651 14.321458,7.60659234 14.7950988,7.60659234 C15.2687397,7.60659234 15.6531439,7.99099651 15.6531439,8.46463737 L15.6531439,13.9428871 L21.1309033,13.9428871 C21.6050345,13.9428871 21.9889484,14.3272913 21.9889484,14.8009322 L21.9889484,14.8009322 Z M29.3818644,14.8009322 C29.3818644,18.6969469 27.8643504,22.3600637 25.1092904,25.1151238 C22.265484,27.9589301 18.5302914,29.3808333 14.7950988,29.3808333 C11.0599063,29.3808333 7.32471366,27.9589301 4.48090727,25.1151238 C1.72584726,22.3600637 0.208333333,18.6969469 0.208333333,14.8009322 C0.208333333,10.9044271 1.72584726,7.24180062 4.48090727,4.48674061 C7.23596729,1.73168059 10.8990841,0.214166667 14.7950988,0.214166667 C18.6911136,0.214166667 22.3542304,1.73168059 25.1092904,4.48674061 C27.8643504,7.24131031 29.3818644,10.9044271 29.3818644,14.8009322 L29.3818644,14.8009322 Z" id="Shape" sketch:type="MSShapeGroup"></path>
            </g>
        </g>
    </g>
</svg>