<?xml version="1.0" encoding="UTF-8" standalone="no"?>
<svg width="25px" height="15px" viewBox="0 0 25 15" version="1.1" xmlns="http://www.w3.org/2000/svg" xmlns:xlink="http://www.w3.org/1999/xlink" xmlns:sketch="http://www.bohemiancoding.com/sketch/ns">
    <!-- Generator: Sketch 3.3 (11970) - http://www.bohemiancoding.com/sketch -->
    <title>vk copy</title>
    <desc>Created with Sketch.</desc>
    <defs>
        <path id="path-1" d="M12.4981789,13.761761 C12.4981789,13.761761 12.9092912,13.7145582 13.1196278,13.4823586 C13.3122086,13.2692308 13.3053795,12.8677686 13.3053795,12.8677686 C13.3053795,12.8677686 13.2798842,10.9915766 14.1271489,10.7145582 C14.9621212,10.4423077 16.0342912,12.5287667 17.1720207,13.3312142 C18.0315778,13.9376987 18.6839853,13.8051494 18.6839853,13.8051494 L21.7247596,13.761761 C21.7247596,13.761761 23.314576,13.6606802 22.5606425,12.3757152 C22.4987252,12.2703433 22.1213032,11.4245073 20.3006629,9.68706294 C18.3935205,7.86808646 18.6493845,8.16226955 20.9453307,5.0158932 C22.3439321,3.10012715 22.9025532,1.93054673 22.727728,1.43038779 C22.5620083,0.951684679 21.5330893,1.07898919 21.5330893,1.07898919 L18.1107955,1.10044501 C18.1107955,1.10044501 17.8567526,1.06516211 17.6687245,1.18054673 C17.4852491,1.29402416 17.3659674,1.5581691 17.3659674,1.5581691 C17.3659674,1.5581691 16.8246467,3.04052765 16.102127,4.30165289 C14.57787,6.96169739 13.9691689,7.10235219 13.7196788,6.9378576 C13.1396598,6.55212969 13.2844369,5.390178 13.2844369,4.56532104 C13.2844369,1.98633185 13.6650459,0.911633821 12.5437063,0.633661793 C12.1717475,0.540686586 11.8981279,0.480133503 10.9461502,0.470120788 C9.72465035,0.457247298 8.69163389,0.474411952 8.10615166,0.768595041 C7.71643721,0.964558169 7.41550117,1.40178004 7.59943182,1.42657343 C7.82524767,1.45756516 8.3374308,1.56865861 8.60922931,1.94866497 C8.95979021,2.43976478 8.94749781,3.54068659 8.94749781,3.54068659 C8.94749781,3.54068659 9.14918415,6.57596949 8.47674461,6.95263827 C8.01555216,7.21153846 7.38317672,6.68372537 6.02418415,4.26970757 C5.32807037,3.03385251 4.80268429,1.66735537 4.80268429,1.66735537 C4.80268429,1.66735537 4.70115822,1.41179275 4.51995921,1.27447552 C4.30051719,1.10855054 3.99411786,1.05705658 3.99411786,1.05705658 L0.742096445,1.07898919 C0.742096445,1.07898919 0.253132284,1.09233948 0.0742096445,1.31118881 C-0.0851362179,1.50476796 0.0619172494,1.90623013 0.0619172494,1.90623013 C0.0619172494,1.90623013 2.60826413,8.03067387 5.49196897,11.1174507 C8.13619974,13.9467578 11.1378205,13.761761 11.1378205,13.761761 L12.4981789,13.761761 L12.4981789,13.761761 Z"></path>
    </defs>
    <g id="Page-1" stroke="none" stroke-width="1" fill="none" fill-rule="evenodd" sketch:type="MSPage">
        <g id="index" sketch:type="MSArtboardGroup" transform="translate(-1046.000000, -1485.000000)">
            <g id="Group" sketch:type="MSLayerGroup" transform="translate(650.000000, 876.000000)">
                <g id="vk-copy" transform="translate(397.000000, 609.000000)">
                    <g id="Group-6" transform="translate(0.250486, 0.235219)">
                        <mask id="mask-2" sketch:name="Clip 5" fill="white">
                            <use xlink:href="#path-1"></use>
                        </mask>
                        <use id="Clip-5" stroke="#C3C1C1" sketch:type="MSShapeGroup" xlink:href="#path-1"></use>
                    </g>
                </g>
            </g>
        </g>
    </g>
</svg>